<svg width="556" height="801" viewBox="0 0 556 801" fill="none" xmlns="http://www.w3.org/2000/svg">
<path d="M278.362 0.546875C125.285 0.546875 0.749023 125.101 0.749023 278.183C0.749023 425.537 252.632 769.809 263.357 784.388L273.367 798.01C274.537 799.611 276.401 800.547 278.362 800.547C280.354 800.547 282.206 799.611 283.388 798.01L293.392 784.388C304.123 769.809 556 425.537 556 278.183C556 125.101 431.444 0.546875 278.362 0.546875ZM278.362 178.734C333.211 178.734 377.811 223.336 377.811 278.183C377.811 333 333.209 377.631 278.362 377.631C223.547 377.631 178.914 333 178.914 278.183C178.914 223.336 223.544 178.734 278.362 178.734Z" fill="#001AFF"/>
</svg>
